{
	"asset":{
		"generator":"Khronos glTF Blender I/O v4.3.47",
		"version":"2.0"
	},
	"scene":0,
	"scenes":[
		{
			"name":"Scene",
			"nodes":[
				0,
				1,
				2,
				3,
				4
			]
		}
	],
	"nodes":[
		{
			"mesh":0,
			"name":"Curve.001",
			"translation":[
				-0.10851941257715225,
				-0.0009098360314965248,
				0.012907827273011208
			]
		},
		{
			"mesh":1,
			"name":"Curve.002",
			"translation":[
				-0.10851941257715225,
				-0.0009098360314965248,
				0.012907827273011208
			]
		},
		{
			"mesh":2,
			"name":"Curve.007",
			"translation":[
				-0.10851941257715225,
				-0.0009098360314965248,
				0.012907827273011208
			]
		},
		{
			"mesh":3,
			"name":"Curve.008",
			"translation":[
				-0.10851941257715225,
				-0.0009098360314965248,
				0.012907827273011208
			]
		},
		{
			"mesh":4,
			"name":"Curve.009",
			"translation":[
				-0.10851941257715225,
				-0.0009098360314965248,
				0.012907827273011208
			]
		}
	],
	"materials":[
		{
			"doubleSided":true,
			"name":"SVGMat.002",
			"pbrMetallicRoughness":{
				"baseColorFactor":[
					0.004776953253895044,
					0.14995978772640228,
					0.4677838087081909,
					1
				],
				"metallicFactor":0,
				"roughnessFactor":0.4000000059604645
			}
		},
		{
			"doubleSided":true,
			"name":"SVGMat.003",
			"pbrMetallicRoughness":{
				"baseColorFactor":[
					0.26635560393333435,
					0.5647115111351013,
					0.04970656707882881,
					1
				],
				"metallicFactor":0,
				"roughnessFactor":0.4000000059604645
			}
		},
		{
			"doubleSided":true,
			"name":"SVGMat.008",
			"pbrMetallicRoughness":{
				"baseColorFactor":[
					0.26635560393333435,
					0.5647115111351013,
					0.04970656707882881,
					1
				],
				"metallicFactor":0,
				"roughnessFactor":0.4000000059604645
			}
		},
		{
			"doubleSided":true,
			"name":"SVGMat.009",
			"pbrMetallicRoughness":{
				"baseColorFactor":[
					0.004776953253895044,
					0.14995978772640228,
					0.4677838087081909,
					1
				],
				"metallicFactor":0,
				"roughnessFactor":0.4000000059604645
			}
		},
		{
			"doubleSided":true,
			"name":"SVGMat.010",
			"pbrMetallicRoughness":{
				"baseColorFactor":[
					0.26635560393333435,
					0.5647115111351013,
					0.04970656707882881,
					1
				],
				"metallicFactor":0,
				"roughnessFactor":0.4000000059604645
			}
		}
	],
	"meshes":[
		{
			"name":"Curve.001",
			"primitives":[
				{
					"attributes":{
						"POSITION":0,
						"NORMAL":1,
						"TEXCOORD_0":2
					},
					"indices":3,
					"material":0
				}
			]
		},
		{
			"name":"Curve.002",
			"primitives":[
				{
					"attributes":{
						"POSITION":4,
						"NORMAL":5,
						"TEXCOORD_0":6
					},
					"indices":7,
					"material":1
				}
			]
		},
		{
			"name":"Curve.007",
			"primitives":[
				{
					"attributes":{
						"POSITION":8,
						"NORMAL":9,
						"TEXCOORD_0":10
					},
					"indices":11,
					"material":2
				}
			]
		},
		{
			"name":"Curve.008",
			"primitives":[
				{
					"attributes":{
						"POSITION":12,
						"NORMAL":13,
						"TEXCOORD_0":14
					},
					"indices":15,
					"material":3
				}
			]
		},
		{
			"name":"Curve.009",
			"primitives":[
				{
					"attributes":{
						"POSITION":16,
						"NORMAL":17,
						"TEXCOORD_0":18
					},
					"indices":19,
					"material":4
				}
			]
		}
	],
	"accessors":[
		{
			"bufferView":0,
			"componentType":5126,
			"count":1236,
			"max":[
				0.20939138531684875,
				0,
				0.0002821683883666992
			],
			"min":[
				0.00028222770197317004,
				0,
				-0.16425272822380066
			],
			"type":"VEC3"
		},
		{
			"bufferView":1,
			"componentType":5126,
			"count":1236,
			"type":"VEC3"
		},
		{
			"bufferView":2,
			"componentType":5126,
			"count":1236,
			"type":"VEC2"
		},
		{
			"bufferView":3,
			"componentType":5123,
			"count":3702,
			"type":"SCALAR"
		},
		{
			"bufferView":4,
			"componentType":5126,
			"count":792,
			"max":[
				0.1869102269411087,
				0,
				-0.09009449183940887
			],
			"min":[
				0.0408889465034008,
				0,
				-0.2864009141921997
			],
			"type":"VEC3"
		},
		{
			"bufferView":5,
			"componentType":5126,
			"count":792,
			"type":"VEC3"
		},
		{
			"bufferView":6,
			"componentType":5126,
			"count":792,
			"type":"VEC2"
		},
		{
			"bufferView":7,
			"componentType":5123,
			"count":2376,
			"type":"SCALAR"
		},
		{
			"bufferView":8,
			"componentType":5126,
			"count":108,
			"max":[
				0.14388005435466766,
				0,
				-0.1345391869544983
			],
			"min":[
				0.09486787021160126,
				0,
				-0.18343281745910645
			],
			"type":"VEC3"
		},
		{
			"bufferView":9,
			"componentType":5126,
			"count":108,
			"type":"VEC3"
		},
		{
			"bufferView":10,
			"componentType":5126,
			"count":108,
			"type":"VEC2"
		},
		{
			"bufferView":11,
			"componentType":5123,
			"count":318,
			"type":"SCALAR"
		},
		{
			"bufferView":12,
			"componentType":5126,
			"count":96,
			"max":[
				0.12170059978961945,
				0,
				-0.05017854645848274
			],
			"min":[
				0.07278166711330414,
				0,
				-0.09908226132392883
			],
			"type":"VEC3"
		},
		{
			"bufferView":13,
			"componentType":5126,
			"count":96,
			"type":"VEC3"
		},
		{
			"bufferView":14,
			"componentType":5126,
			"count":96,
			"type":"VEC2"
		},
		{
			"bufferView":15,
			"componentType":5123,
			"count":282,
			"type":"SCALAR"
		},
		{
			"bufferView":16,
			"componentType":5126,
			"count":336,
			"max":[
				0.12722539901733398,
				0,
				-0.12383569777011871
			],
			"min":[
				0.040101610124111176,
				0,
				-0.2749938368797302
			],
			"type":"VEC3"
		},
		{
			"bufferView":17,
			"componentType":5126,
			"count":336,
			"type":"VEC3"
		},
		{
			"bufferView":18,
			"componentType":5126,
			"count":336,
			"type":"VEC2"
		},
		{
			"bufferView":19,
			"componentType":5123,
			"count":1002,
			"type":"SCALAR"
		}
	],
	"bufferViews":[
		{
			"buffer":0,
			"byteLength":14832,
			"byteOffset":0,
			"target":34962
		},
		{
			"buffer":0,
			"byteLength":14832,
			"byteOffset":14832,
			"target":34962
		},
		{
			"buffer":0,
			"byteLength":9888,
			"byteOffset":29664,
			"target":34962
		},
		{
			"buffer":0,
			"byteLength":7404,
			"byteOffset":39552,
			"target":34963
		},
		{
			"buffer":0,
			"byteLength":9504,
			"byteOffset":46956,
			"target":34962
		},
		{
			"buffer":0,
			"byteLength":9504,
			"byteOffset":56460,
			"target":34962
		},
		{
			"buffer":0,
			"byteLength":6336,
			"byteOffset":65964,
			"target":34962
		},
		{
			"buffer":0,
			"byteLength":4752,
			"byteOffset":72300,
			"target":34963
		},
		{
			"buffer":0,
			"byteLength":1296,
			"byteOffset":77052,
			"target":34962
		},
		{
			"buffer":0,
			"byteLength":1296,
			"byteOffset":78348,
			"target":34962
		},
		{
			"buffer":0,
			"byteLength":864,
			"byteOffset":79644,
			"target":34962
		},
		{
			"buffer":0,
			"byteLength":636,
			"byteOffset":80508,
			"target":34963
		},
		{
			"buffer":0,
			"byteLength":1152,
			"byteOffset":81144,
			"target":34962
		},
		{
			"buffer":0,
			"byteLength":1152,
			"byteOffset":82296,
			"target":34962
		},
		{
			"buffer":0,
			"byteLength":768,
			"byteOffset":83448,
			"target":34962
		},
		{
			"buffer":0,
			"byteLength":564,
			"byteOffset":84216,
			"target":34963
		},
		{
			"buffer":0,
			"byteLength":4032,
			"byteOffset":84780,
			"target":34962
		},
		{
			"buffer":0,
			"byteLength":4032,
			"byteOffset":88812,
			"target":34962
		},
		{
			"buffer":0,
			"byteLength":2688,
			"byteOffset":92844,
			"target":34962
		},
		{
			"buffer":0,
			"byteLength":2004,
			"byteOffset":95532,
			"target":34963
		}
	],
	"buffers":[
		{
			"byteLength":97536,
			"uri":"saselogo.bin"
		}
	]
}
